<svg xmlns="http://www.w3.org/2000/svg" width="48" height="48" viewBox="0 0 48 48">
  <metadata><?xpacket begin="﻿" id="W5M0MpCehiHzreSzNTczkc9d"?>
<x:xmpmeta xmlns:x="adobe:ns:meta/" x:xmptk="Adobe XMP Core 5.6-c138 79.159824, 2016/09/14-01:09:01        ">
   <rdf:RDF xmlns:rdf="http://www.w3.org/1999/02/22-rdf-syntax-ns#">
      <rdf:Description rdf:about=""/>
   </rdf:RDF>
</x:xmpmeta>
                                                                                                    
                                                                                                    
                                                                                                    
                                                                                                    
                                                                                                    
                                                                                                    
                                                                                                    
                                                                                                    
                                                                                                    
                                                                                                    
                                                                                                    
                                                                                                    
                                                                                                    
                                                                                                    
                                                                                                    
                                                                                                    
                                                                                                    
                                                                                                    
                                                                                                    
                                                                                                    
                           
<?xpacket end="w"?></metadata>
<defs>
    <style>
      .cls-1 {
        fill: #0d3e7e;
        fill-rule: evenodd;
        opacity: 0.7;
      }
    </style>
  </defs>
  <path id="Forma_1_копия" data-name="Forma 1 копия" class="cls-1" d="M48.687,6815.8a5.6,5.6,0,1,0-5.6-5.6A5.6,5.6,0,0,0,48.687,6815.8Zm0-9.6a4,4,0,1,1-4,4A4,4,0,0,1,48.687,6806.2Zm-0.142,32.6,12.273-17.72c4.6-6.14,3.938-16.22-1.425-21.59a15.35,15.35,0,0,0-21.7,0c-5.362,5.36-6.028,15.45-1.443,21.56Zm-9.717-38.18a13.753,13.753,0,0,1,19.434,0c4.84,4.84,5.436,13.95,1.258,19.52l-10.975,15.85-10.993-15.87C33.393,6814.57,33.99,6805.46,38.829,6800.62Zm19.552,28.78a0.806,0.806,0,0,0-.888.71,0.8,0.8,0,0,0,.7.88c8.413,0.99,12.894,3.66,12.894,5.21,0,2.17-8.522,5.2-22.4,5.2s-22.4-3.03-22.4-5.2c0-1.55,4.481-4.22,12.893-5.21a0.8,0.8,0,0,0,.7-0.88,0.807,0.807,0,0,0-.888-0.71c-8.423,1-14.306,3.79-14.306,6.8,0,3.38,8.244,6.8,24,6.8s24-3.42,24-6.8C72.687,6833.19,66.8,6830.4,58.381,6829.4Z" transform="translate(-24.688 -6795)"/>
</svg>
