<svg xmlns="http://www.w3.org/2000/svg" width="45" height="33" viewBox="0 0 45 33">
  <metadata><?xpacket begin="﻿" id="W5M0MpCehiHzreSzNTczkc9d"?>
<x:xmpmeta xmlns:x="adobe:ns:meta/" x:xmptk="Adobe XMP Core 5.6-c138 79.159824, 2016/09/14-01:09:01        ">
   <rdf:RDF xmlns:rdf="http://www.w3.org/1999/02/22-rdf-syntax-ns#">
      <rdf:Description rdf:about=""/>
   </rdf:RDF>
</x:xmpmeta>
                                                                                                    
                                                                                                    
                                                                                                    
                                                                                                    
                                                                                                    
                                                                                                    
                                                                                                    
                                                                                                    
                                                                                                    
                                                                                                    
                                                                                                    
                                                                                                    
                                                                                                    
                                                                                                    
                                                                                                    
                                                                                                    
                                                                                                    
                                                                                                    
                                                                                                    
                                                                                                    
                           
<?xpacket end="w"?></metadata>
<defs>
    <style>
      .cls-1 {
        fill: #0d3e7e;
        fill-rule: evenodd;
        opacity: 0.7;
      }
    </style>
  </defs>
  <path id="Forma_1" data-name="Forma 1" class="cls-1" d="M70.349,6986h-43.7a0.656,0.656,0,0,0-.659.66v31.68a0.656,0.656,0,0,0,.659.66h43.7a0.656,0.656,0,0,0,.659-0.66v-31.68A0.656,0.656,0,0,0,70.349,6986Zm-0.659,31.68H27.31v-30.36H69.69v30.36Zm-1.522-2.45L54.92,7002.5l13.248-12.73a0.656,0.656,0,0,0,.019-0.93,0.664,0.664,0,0,0-.932-0.02l-13.677,13.14c-0.032.03-.063,0.05-0.091,0.08a0.3,0.3,0,0,1-.045.05l-1.6,1.55a4.839,4.839,0,0,1-6.675,0l-1.6-1.55a0.288,0.288,0,0,1-.045-0.05c-0.028-.03-0.059-0.05-0.092-0.08l-13.677-13.14a0.664,0.664,0,0,0-.932.02,0.657,0.657,0,0,0,.019.93L42.08,7002.5l-13.248,12.73a0.657,0.657,0,0,0-.019.93,0.635,0.635,0,0,0,.476.2,0.665,0.665,0,0,0,.456-0.18l13.287-12.76,1.215,1.17a6.168,6.168,0,0,0,8.5,0l1.216-1.17,13.287,12.76a0.665,0.665,0,0,0,.456.18,0.635,0.635,0,0,0,.476-0.2A0.656,0.656,0,0,0,68.168,7015.23Z" transform="translate(-26 -6986)"/>
</svg>
