<svg xmlns="http://www.w3.org/2000/svg" width="82.375" height="82.343" viewBox="0 0 82.375 82.343">
  <metadata><?xpacket begin="﻿" id="W5M0MpCehiHzreSzNTczkc9d"?>
<x:xmpmeta xmlns:x="adobe:ns:meta/" x:xmptk="Adobe XMP Core 5.6-c138 79.159824, 2016/09/14-01:09:01        ">
   <rdf:RDF xmlns:rdf="http://www.w3.org/1999/02/22-rdf-syntax-ns#">
      <rdf:Description rdf:about=""/>
   </rdf:RDF>
</x:xmpmeta>
                                                                                                    
                                                                                                    
                                                                                                    
                                                                                                    
                                                                                                    
                                                                                                    
                                                                                                    
                                                                                                    
                                                                                                    
                                                                                                    
                                                                                                    
                                                                                                    
                                                                                                    
                                                                                                    
                                                                                                    
                                                                                                    
                                                                                                    
                                                                                                    
                                                                                                    
                                                                                                    
                           
<?xpacket end="w"?></metadata>
<defs>
    <style>
      .cls-1 {
        fill: #0066b3;
        fill-rule: evenodd;
      }
    </style>
  </defs>
  <path id="Forma_1" data-name="Forma 1" class="cls-1" d="M70.229,571.252H67.073a1.208,1.208,0,0,0-1.209,1.207v9.651a1.209,1.209,0,0,0,2.418,0v-3.146h1.947a3.015,3.015,0,0,0,3.014-3.01v-1.692A3.015,3.015,0,0,0,70.229,571.252Zm0.6,4.7a0.6,0.6,0,0,1-.6.6H68.282v-2.882h1.947a0.6,0.6,0,0,1,.6.595v1.692Zm6.71,64.513h-4.5v-7.831a2.016,2.016,0,0,0-2.015-2.013H70.094v-42a11.569,11.569,0,1,0-6.063-22.011,1.208,1.208,0,1,0,1.014,2.192,9.137,9.137,0,1,1-4.9,5.552,1.209,1.209,0,0,0-2.306-.728,11.573,11.573,0,0,0,9.839,15v42H66.751a2.016,2.016,0,0,0-2.015,2.012v7.832h-4.5a2.015,2.015,0,0,0-2.015,2.012v3.412a2.015,2.015,0,0,0,2.015,2.012h17.3a2.015,2.015,0,0,0,2.015-2.012v-3.412A2.016,2.016,0,0,0,77.535,640.467Zm-10.38-7.429h3.461v7.429H67.154v-7.429Zm9.978,12.452H60.638v-2.608H77.132v2.608h0Zm35.941-17.218h-13a1.208,1.208,0,1,0,0,2.415h13A1.208,1.208,0,1,0,113.073,628.272Zm0-3.783h-13a1.208,1.208,0,1,0,0,2.415h13A1.208,1.208,0,1,0,113.073,624.489ZM93.55,623.024H84.74a2.016,2.016,0,0,0-2.015,2.012v5.1a2.015,2.015,0,0,0,2.015,2.012h8.81a2.016,2.016,0,0,0,2.015-2.012v-5.1A2.016,2.016,0,0,0,93.55,623.024Zm-0.4,6.714h-8v-4.3h8v4.3Zm35.256-6.714h-8.809a2.016,2.016,0,0,0-2.015,2.012v5.1a2.015,2.015,0,0,0,2.015,2.012H128.4a2.016,2.016,0,0,0,2.015-2.012v-5.1A2.016,2.016,0,0,0,128.4,623.024Zm-0.4,6.714h-8v-4.3h8v4.3Zm9.685-15.846h-3.178l0,0.008a1.209,1.209,0,0,0-1.065.987l-0.818,4.573-4.438-14.518a2,2,0,0,0-1.927-1.425h-2.775a1.207,1.207,0,1,0,0,2.414h2.476l4.236,13.856H115.294l5.8-4.906a1.208,1.208,0,0,0-1.563-1.842l-7.975,6.748H96.13l5.8-4.906a1.208,1.208,0,1,0-1.563-1.842l-7.975,6.748H82.944l4.236-13.856h27.494a1.207,1.207,0,1,0,0-2.414H86.882a2,2,0,0,0-1.927,1.425L80.516,619.46,79.7,614.887a1.209,1.209,0,0,0-1.178-.994H75.458a2.016,2.016,0,0,0-2.015,2.012v2.3a2.016,2.016,0,0,0,2.015,2.012h2.736l0.159,0.888v15.065a4.367,4.367,0,0,0,3.127,4.179v3.875A3.69,3.69,0,0,0,85.17,647.9h7.325a3.691,3.691,0,0,0,3.689-3.684v-3.694h20.775v3.694a3.69,3.69,0,0,0,3.689,3.684h7.325a3.69,3.69,0,0,0,3.689-3.684v-3.875a4.367,4.367,0,0,0,3.127-4.179V621.1l0.159-.888h2.737A2.016,2.016,0,0,0,139.7,618.2v-2.3A2.015,2.015,0,0,0,137.685,613.892ZM75.861,617.8v-1.492h1.622l0.249,1.492h-1.87Zm17.9,26.421a1.272,1.272,0,0,1-1.271,1.27H85.17a1.272,1.272,0,0,1-1.271-1.27v-3.694h9.868v3.694h0Zm11.6-6.109H82.72a1.949,1.949,0,0,1-1.948-1.945v-0.778h24.591v2.723Zm23.882,6.109h0a1.273,1.273,0,0,1-1.272,1.27h-7.324a1.273,1.273,0,0,1-1.272-1.27v-3.694h9.868v3.694h0Zm3.126-8.054a1.949,1.949,0,0,1-1.948,1.945H107.781v-2.723h24.59v0.778Zm0-3.192h-51.6V622.2h51.6v10.772h0Zm4.911-15.175h-1.871l0.249-1.492h1.622V617.8Z" transform="translate(-57.313 -565.563)"/>
</svg>
