<svg xmlns="http://www.w3.org/2000/svg" width="60.782" height="60.75" viewBox="0 0 60.782 60.75">
  <metadata><?xpacket begin="﻿" id="W5M0MpCehiHzreSzNTczkc9d"?>
<x:xmpmeta xmlns:x="adobe:ns:meta/" x:xmptk="Adobe XMP Core 5.6-c138 79.159824, 2016/09/14-01:09:01        ">
   <rdf:RDF xmlns:rdf="http://www.w3.org/1999/02/22-rdf-syntax-ns#">
      <rdf:Description rdf:about=""/>
   </rdf:RDF>
</x:xmpmeta>
                                                                                                    
                                                                                                    
                                                                                                    
                                                                                                    
                                                                                                    
                                                                                                    
                                                                                                    
                                                                                                    
                                                                                                    
                                                                                                    
                                                                                                    
                                                                                                    
                                                                                                    
                                                                                                    
                                                                                                    
                                                                                                    
                                                                                                    
                                                                                                    
                                                                                                    
                                                                                                    
                           
<?xpacket end="w"?></metadata>
<defs>
    <style>
      .cls-1 {
        fill: #0066b3;
        fill-rule: evenodd;
      }
    </style>
  </defs>
  <path class="cls-1" d="M270.078,834.049h2.076v2.07h-2.076v-2.07Zm4.151,0h2.076v2.07h-2.076v-2.07Zm4.152,0h2.076v2.07h-2.076v-2.07Zm37.365,9.319H313.67a3.114,3.114,0,0,1-3.113,3.106v2.071a3.114,3.114,0,0,1,3.113,3.107h2.076a3.114,3.114,0,0,1,3.114-3.107v-2.071A3.114,3.114,0,0,1,315.746,843.368Zm-1.038,5.209a1.068,1.068,0,1,1,0-2.135A1.068,1.068,0,1,1,314.708,848.577Zm7.266-16.6H319.9a3.114,3.114,0,0,1-3.114,3.107v2.071a3.113,3.113,0,0,1,3.114,3.106h2.076a3.113,3.113,0,0,1,3.114-3.106v-2.071A3.114,3.114,0,0,1,321.974,831.977Zm-1.038,5.21a1.068,1.068,0,1,1,0-2.135A1.068,1.068,0,1,1,320.936,837.187ZM301.65,888.208a78.839,78.839,0,0,1-31.9-10.438l-2.831-1.676a18.244,18.244,0,0,0,.9-3.013c0.07-.3.142-0.6,0.216-0.9,0.219-.856.462-2.252,0.744-3.866a47.93,47.93,0,0,1,1.362-6.381l6.218-15.9c0.135-.346.259-0.721,0.386-1.1a6.133,6.133,0,0,1,1.336-2.65,5.4,5.4,0,0,1,1.308-.776,0.9,0.9,0,0,0,.152-0.086l12.3-9.4a1.681,1.681,0,0,1,2.08.021l6.17,4.923a1.681,1.681,0,0,1,.056,2.579l-3.936,3.435a1.694,1.694,0,0,1-2.3-.076,1.678,1.678,0,0,1,.258-2.589l0.349-.234-1.153-1.721-0.348.233a3.746,3.746,0,0,0-.574,5.775,3.776,3.776,0,0,0,5.137.171l3.31-2.889,1.018,1.524L295.7,848.5l-7.429-.927c0.113-.531.243-1.057,0.4-1.579l-1.993-.577a24.29,24.29,0,0,0-.961,7.355c0.031,1.337.174,2.668,0.313,3.957a38.683,38.683,0,0,1,.306,4.392,14.569,14.569,0,0,1-4.5,10.83l1.368,1.557a15.036,15.036,0,0,0,4.309-6.73,2.905,2.905,0,0,1,1.1-.064,12.248,12.248,0,0,1,3.928,1.052,12.357,12.357,0,0,0-1.227,2.592l1.968,0.659a10.215,10.215,0,0,1,1.087-2.255c0.025,0.017.052,0.029,0.076,0.046l1-1.449a13.61,13.61,0,0,1,8.188-4.209c5.019-.75,9.684.967,12.2,4.471l1.689-1.206a12.581,12.581,0,0,0-3.953-3.541,11.722,11.722,0,0,1,11.07-2.109l0.68-1.956a13.843,13.843,0,0,0-13.774,3.1,16.326,16.326,0,0,0-8.215-.807,15.646,15.646,0,0,0-9.5,4.957,14.415,14.415,0,0,0-5.027-1.407c-0.229-.021-0.475-0.03-0.726-0.028a19.1,19.1,0,0,0,.344-3.489,40.559,40.559,0,0,0-.318-4.627c-0.134-1.246-.272-2.534-0.3-3.785a22.174,22.174,0,0,1,.153-3.1l7.957,0.992c0.046,0,.089.006,0.132,0.006a1.031,1.031,0,0,0,.674-0.25l7.266-6.213a1.033,1.033,0,0,0,.189-1.359l-1.821-2.726a3.691,3.691,0,0,0-.936-4.715l-6.168-4.924a3.761,3.761,0,0,0-4.644-.043l-11.752,9.021-0.384.262a7.137,7.137,0,0,0-1.73,1.064,7.673,7.673,0,0,0-1.938,3.557c-0.114.345-.226,0.683-0.348,1l-6.217,15.9a45.881,45.881,0,0,0-1.475,6.78c-0.263,1.506-.51,2.93-0.709,3.71-0.079.307-.153,0.618-0.226,0.929a12.307,12.307,0,0,1-1.139,3.372,1.035,1.035,0,0,0,.367,1.408l3.657,2.168a81.056,81.056,0,0,0,32.783,10.72c0.831,0.07,1.879.112,3.074,0.112,5.967,0,15.593-1.042,20.16-4.8l-1.319-1.6C318.673,887.867,306.9,888.649,301.65,888.208Z" transform="translate(-264.531 -829.625)"/>
</svg>
