<svg xmlns="http://www.w3.org/2000/svg" width="68.812" height="58.407" viewBox="0 0 68.812 58.407">
  <metadata><?xpacket begin="﻿" id="W5M0MpCehiHzreSzNTczkc9d"?>
<x:xmpmeta xmlns:x="adobe:ns:meta/" x:xmptk="Adobe XMP Core 5.6-c138 79.159824, 2016/09/14-01:09:01        ">
   <rdf:RDF xmlns:rdf="http://www.w3.org/1999/02/22-rdf-syntax-ns#">
      <rdf:Description rdf:about=""/>
   </rdf:RDF>
</x:xmpmeta>
                                                                                                    
                                                                                                    
                                                                                                    
                                                                                                    
                                                                                                    
                                                                                                    
                                                                                                    
                                                                                                    
                                                                                                    
                                                                                                    
                                                                                                    
                                                                                                    
                                                                                                    
                                                                                                    
                                                                                                    
                                                                                                    
                                                                                                    
                                                                                                    
                                                                                                    
                                                                                                    
                           
<?xpacket end="w"?></metadata>
<defs>
    <style>
      .cls-1 {
        fill: #0066b3;
        fill-rule: evenodd;
      }
    </style>
  </defs>
  <path class="cls-1" d="M281.778,617.183a4.628,4.628,0,1,0-4.58-4.628A4.618,4.618,0,0,0,281.778,617.183Zm0-6.942a2.314,2.314,0,1,1-2.29,2.314A2.309,2.309,0,0,1,281.778,610.241Zm51.535,1.041a16.209,16.209,0,0,0-13.48-15.991l-1.923-9.348h1.7c0.159,2.322.93,4.645,3.972,5.438a9.909,9.909,0,0,0,1.832.232,14.4,14.4,0,0,0,2.978-.463l4.237-1.736a1.081,1.081,0,0,0,.687-1.5,1.1,1.1,0,0,0-1.488-.694l-4.238,1.735a5.52,5.52,0,0,1-3.321.232c-1.554-.392-2.2-1.285-2.362-3.24h1.1a2.309,2.309,0,0,0,2.291-2.314v-2.315A2.309,2.309,0,0,0,323.006,579H308.118a2.309,2.309,0,0,0-2.29,2.314v2.315a2.31,2.31,0,0,0,2.29,2.314h1.353l2.27,10.13a15.936,15.936,0,0,0-9.059,8.608l-18.969-1.209-4-16.372h1.836a3.666,3.666,0,0,0,3.665-3.819,3.708,3.708,0,0,0-2.748-3.586l-9.964-2.314a3.689,3.689,0,0,0-3.092.694,3.523,3.523,0,0,0-1.374,2.892v2.546a3.587,3.587,0,0,0,3.55,3.587h0.1l0.546,2.314h-6.49a1.157,1.157,0,0,0,0,2.314h1.145v1.157a1.088,1.088,0,0,0,1.146,1.157,1.154,1.154,0,0,0,1.145-1.157v-1.157h3.6L276,605.387a9.28,9.28,0,0,0-1.333,12.983l-5.087,10.383h-0.4a3.392,3.392,0,0,0-3.436,3.471,3.464,3.464,0,0,0,3.436,3.471h58.406a3.392,3.392,0,0,0,3.436-3.471,3.464,3.464,0,0,0-3.436-3.471h-0.628l-0.823-3.907A16.451,16.451,0,0,0,333.313,611.282Zm-51.535,10.529a9.96,9.96,0,0,0,1.947-.232l19.423-2.536A16.16,16.16,0,0,0,317.28,627.6c0.383,0,.763-0.015,1.14-0.042l0.268,1.2H277.914l3.567-6.95C281.58,621.807,281.679,621.811,281.778,621.811Zm26.34-40.5h14.888v2.315H308.118v-2.315h0Zm3.665,4.629h3.665l1.923,9.141H317.28a16.024,16.024,0,0,0-3.346.354Zm1.514,12.149h0.2a14.273,14.273,0,0,1,3.779-.579c0.344,0,.686.013,1.024,0.039,0.176,0.017.366,0.041,0.58,0.077a0.762,0.762,0,0,0,.385.031,13.874,13.874,0,1,1-13.648,21.06l11.774-1.537a5.751,5.751,0,0,0,5.611-5.786,5.677,5.677,0,0,0-5.611-5.785l-12.254-.809A13.635,13.635,0,0,1,313.3,598.092Zm-42.971-14.579v-2.546a1.5,1.5,0,0,1,.458-1.157,1.65,1.65,0,0,1,.8-0.231c0.114,0,.229.115,0.343,0.115l9.964,2.315a1.387,1.387,0,0,1,1.031,1.388,1.331,1.331,0,0,1-1.375,1.389h-9.963A1.278,1.278,0,0,1,270.326,583.513Zm6.986,3.587,4.123,15.852a10.757,10.757,0,0,0-3.321.809L274.105,587.1h3.207Zm4.466,18.512h0.8l34.586,2.314h0.114a3.472,3.472,0,0,1,0,6.943h-0.114l-14.723,1.916-0.394.051h0l-18.667,2.428a7.012,7.012,0,0,1-2.017.213,0.877,0.877,0,0,0-.388-0.1,6.33,6.33,0,0,1-4.116-1.96,7.04,7.04,0,0,1-1.954-4.866A6.927,6.927,0,0,1,281.778,605.612Zm-5.268,14.579a11.123,11.123,0,0,0,2.634,1.273l-3.779,7.289h-3.207Zm52.222,12.033a1.152,1.152,0,0,1-1.145,1.157H269.181a1.087,1.087,0,0,1-1.145-1.157,1.152,1.152,0,0,1,1.145-1.156h58.406A1.087,1.087,0,0,1,328.732,632.224Zm-4.237-3.471h-3.436l-0.343-1.5c0.187-.057.371-0.113,0.552-0.171a15.731,15.731,0,0,0,2.658-.969Z" transform="translate(-264.594 -577.281)"/>
</svg>
