<svg xmlns="http://www.w3.org/2000/svg" width="15.938" height="9.125" viewBox="0 0 15.938 9.125">
  <metadata><?xpacket begin="﻿" id="W5M0MpCehiHzreSzNTczkc9d"?>
<x:xmpmeta xmlns:x="adobe:ns:meta/" x:xmptk="Adobe XMP Core 5.6-c138 79.159824, 2016/09/14-01:09:01        ">
   <rdf:RDF xmlns:rdf="http://www.w3.org/1999/02/22-rdf-syntax-ns#">
      <rdf:Description rdf:about=""/>
   </rdf:RDF>
</x:xmpmeta>
                                                                                                    
                                                                                                    
                                                                                                    
                                                                                                    
                                                                                                    
                                                                                                    
                                                                                                    
                                                                                                    
                                                                                                    
                                                                                                    
                                                                                                    
                                                                                                    
                                                                                                    
                                                                                                    
                                                                                                    
                                                                                                    
                                                                                                    
                                                                                                    
                                                                                                    
                                                                                                    
                           
<?xpacket end="w"?></metadata>
<defs>
    <style>
      .cls-1 {
        fill: #fff;
        fill-rule: evenodd;
      }
    </style>
  </defs>
  <path class="cls-1" d="M302.136,19.24a21.849,21.849,0,0,1,1.561,1.589,4.607,4.607,0,0,1,.559.816,0.585,0.585,0,0,1-.353.91h-2.322a1.781,1.781,0,0,1-1.478-.608c-0.322-.332-0.619-0.684-0.928-1.027a2.238,2.238,0,0,0-.418-0.376,0.483,0.483,0,0,0-.773.19,2.488,2.488,0,0,0-.245,1.1,0.619,0.619,0,0,1-.739.724,5.88,5.88,0,0,1-3.323-.723,7.386,7.386,0,0,1-2.235-2.118,28.618,28.618,0,0,1-2.942-5.308c-0.186-.419-0.05-0.643.406-0.651,0.758-.015,1.515-0.014,2.273,0a0.669,0.669,0,0,1,.631.477,14.29,14.29,0,0,0,1.54,2.89,2.467,2.467,0,0,0,.582.648,0.352,0.352,0,0,0,.6-0.179,2.009,2.009,0,0,0,.134-0.606,9.15,9.15,0,0,0-.037-2.124,0.883,0.883,0,0,0-.745-0.81c-0.222-.043-0.189-0.126-0.082-0.254a0.833,0.833,0,0,1,.712-0.359h2.624a0.632,0.632,0,0,1,.562.691l0,2.95a0.864,0.864,0,0,0,.37.754,0.513,0.513,0,0,0,.524-0.261,9.106,9.106,0,0,0,1.477-2.3c0.178-.363.331-0.74,0.479-1.117a0.562,0.562,0,0,1,.593-0.411l2.526,0a1.306,1.306,0,0,1,.223.014,0.444,0.444,0,0,1,.411.68,6.406,6.406,0,0,1-1,1.762c-0.421.59-.872,1.159-1.289,1.753a0.805,0.805,0,0,0,.123,1.285h0Z" transform="translate(-288.406 -13.438)"/>
</svg>
