<svg xmlns="http://www.w3.org/2000/svg" width="49" height="28" viewBox="0 0 49 28">
  <metadata><?xpacket begin="﻿" id="W5M0MpCehiHzreSzNTczkc9d"?>
<x:xmpmeta xmlns:x="adobe:ns:meta/" x:xmptk="Adobe XMP Core 5.6-c138 79.159824, 2016/09/14-01:09:01        ">
   <rdf:RDF xmlns:rdf="http://www.w3.org/1999/02/22-rdf-syntax-ns#">
      <rdf:Description rdf:about=""/>
   </rdf:RDF>
</x:xmpmeta>
                                                                                                    
                                                                                                    
                                                                                                    
                                                                                                    
                                                                                                    
                                                                                                    
                                                                                                    
                                                                                                    
                                                                                                    
                                                                                                    
                                                                                                    
                                                                                                    
                                                                                                    
                                                                                                    
                                                                                                    
                                                                                                    
                                                                                                    
                                                                                                    
                                                                                                    
                                                                                                    
                           
<?xpacket end="w"?></metadata>
<defs>
    <style>
      .cls-1 {
        fill: #0d3e7e;
        fill-rule: evenodd;
        opacity: 0.7;
      }
    </style>
  </defs>
  <path id="Фигура_19_копия" data-name="Фигура 19 копия" class="cls-1" d="M49.155,7094a18.026,18.026,0,0,1-9.082-2.23,22.262,22.262,0,0,1-6.889-6.39,82.682,82.682,0,0,1-8.893-15.71,2,2,0,0,1-.071-1.96,2.055,2.055,0,0,1,1.817-.78c2.181-.04,4.418-0.04,6.841,0a2.558,2.558,0,0,1,2.428,1.77,41.345,41.345,0,0,0,4.559,8.38,6.876,6.876,0,0,0,1.6,1.75,0.743,0.743,0,0,0,.562.2,0.763,0.763,0,0,0,.366-0.47,5.213,5.213,0,0,0,.357-1.6,25.549,25.549,0,0,0-.108-6.11,2.031,2.031,0,0,0-1.763-1.89,1.125,1.125,0,0,1-.93-0.63,1.1,1.1,0,0,1,.347-1.07,3.094,3.094,0,0,1,2.585-1.26h7.932l0.056,0.01c1.562,0.3,1.962,1.12,2.155,2.52l0.005,0.08,0.007,8.67a2.1,2.1,0,0,0,.715,1.67,0.949,0.949,0,0,0,.867-0.53l0.083-.08a26.568,26.568,0,0,0,4.332-6.62c0.495-.99.925-2.01,1.418-3.24a2.294,2.294,0,0,1,2.339-1.58l7.569,0.01a5.118,5.118,0,0,1,.769.05,2.308,2.308,0,0,1,1.649.89,2.254,2.254,0,0,1,.046,1.86,18.512,18.512,0,0,1-2.963,5.16l-0.134.18c-0.594.82-1.216,1.63-1.817,2.42-0.682.89-1.386,1.81-2.049,2.73-0.977,1.36-.929,1.83.3,3.02v0.01c0.417,0.4.848,0.8,1.265,1.19a43.2,43.2,0,0,1,3.46,3.52,14.226,14.226,0,0,1,1.75,2.5,2.644,2.644,0,0,1,.028,2.53,1.933,1.933,0,0,1-1.572,1H64.108a5.933,5.933,0,0,1-4.881-1.96c-0.665-.67-1.3-1.38-1.92-2.07-0.292-.32-0.584-0.64-0.88-0.97a6.289,6.289,0,0,0-1.14-1,1.167,1.167,0,0,0-.862-0.24,1.054,1.054,0,0,0-.621.58,6.671,6.671,0,0,0-.662,2.98c-0.087,1.89-.814,2.59-2.78,2.68Q49.75,7094,49.155,7094Zm-19.7-25.93c-1.158,0-2.284.01-3.4,0.03a1.133,1.133,0,0,0-.844.23,1.086,1.086,0,0,0,.15.86,81.672,81.672,0,0,0,8.766,15.5,21.077,21.077,0,0,0,6.527,6.06,17.281,17.281,0,0,0,9.649,2.05c1.381-.06,1.6-0.27,1.657-1.57a7.818,7.818,0,0,1,.805-3.48,2.216,2.216,0,0,1,1.367-1.16,2.287,2.287,0,0,1,1.791.4,6.847,6.847,0,0,1,1.368,1.2c0.3,0.32.594,0.65,0.889,0.97,0.608,0.68,1.237,1.38,1.883,2.03a4.812,4.812,0,0,0,3.967,1.61h6.994a0.732,0.732,0,0,0,.607-0.41,1.5,1.5,0,0,0-.048-1.41,12.8,12.8,0,0,0-1.609-2.29,40.614,40.614,0,0,0-3.365-3.42c-0.42-.39-0.855-0.8-1.278-1.21h0c-1.636-1.58-1.746-2.73-.437-4.54,0.672-.93,1.382-1.86,2.069-2.76,0.6-.78,1.215-1.59,1.8-2.39l0.134-.18a17.468,17.468,0,0,0,2.8-4.83,1.268,1.268,0,0,0,.072-0.9,1.239,1.239,0,0,0-.842-0.35,3.45,3.45,0,0,0-.57-0.03l-7.58-.01a1.134,1.134,0,0,0-1.232.84c-0.5,1.26-.944,2.31-1.456,3.33a27.475,27.475,0,0,1-4.532,6.9l-0.08.08a2.005,2.005,0,0,1-2.1.84l-0.021-.01c-1.167-.43-1.517-2.09-1.5-2.78l-0.007-8.62c-0.151-1.07-.334-1.31-1.155-1.48H42.879a1.838,1.838,0,0,0-1.55.69,3.2,3.2,0,0,1,2.477,2.82,26.632,26.632,0,0,1,.116,6.38,6.377,6.377,0,0,1-.446,1.96,1.815,1.815,0,0,1-1.12,1.13,1.846,1.846,0,0,1-1.559-.35,7.857,7.857,0,0,1-1.894-2.05,41.9,41.9,0,0,1-4.688-8.61,1.4,1.4,0,0,0-1.355-1.04C31.686,7068.08,30.556,7068.07,29.455,7068.07Z" transform="translate(-24 -7066)"/>
</svg>
