<svg xmlns="http://www.w3.org/2000/svg" width="61.594" height="70.375" viewBox="0 0 61.594 70.375">
  <metadata><?xpacket begin="﻿" id="W5M0MpCehiHzreSzNTczkc9d"?>
<x:xmpmeta xmlns:x="adobe:ns:meta/" x:xmptk="Adobe XMP Core 5.6-c138 79.159824, 2016/09/14-01:09:01        ">
   <rdf:RDF xmlns:rdf="http://www.w3.org/1999/02/22-rdf-syntax-ns#">
      <rdf:Description rdf:about=""/>
   </rdf:RDF>
</x:xmpmeta>
                                                                                                    
                                                                                                    
                                                                                                    
                                                                                                    
                                                                                                    
                                                                                                    
                                                                                                    
                                                                                                    
                                                                                                    
                                                                                                    
                                                                                                    
                                                                                                    
                                                                                                    
                                                                                                    
                                                                                                    
                                                                                                    
                                                                                                    
                                                                                                    
                                                                                                    
                                                                                                    
                           
<?xpacket end="w"?></metadata>
<defs>
    <style>
      .cls-1 {
        fill: #0066b3;
        fill-rule: evenodd;
      }
    </style>
  </defs>
  <path class="cls-1" d="M113.759,875l12.094-11.781a3.048,3.048,0,0,0-1.691-5.2l-7.688-1.116a1.112,1.112,0,1,0-.319,2.2l7.687,1.116a0.825,0.825,0,0,1,.458,1.408l-12.512,12.189a1.113,1.113,0,0,0-.32.984l2.954,17.212a0.82,0.82,0,0,1-.329.807,0.838,0.838,0,0,1-.869.063l-15.467-8.126a1.114,1.114,0,0,0-1.035,0l-15.466,8.126a0.826,0.826,0,0,1-1.2-.87L83.012,874.8a1.113,1.113,0,0,0-.32-0.984L70.179,861.623a0.825,0.825,0,0,1,.458-1.408L87.929,857.7a1.109,1.109,0,0,0,.838-0.608l7.733-15.66a0.826,0.826,0,0,1,1.481,0l7.733,15.66a1.113,1.113,0,0,0,.837.608l5.833,0.847a1.112,1.112,0,1,0,.32-2.2l-5.254-.762-7.475-15.136a3.051,3.051,0,0,0-5.47,0l-7.475,15.137-16.714,2.426a3.048,3.048,0,0,0-1.69,5.2L80.72,875l-2.855,16.637a3.047,3.047,0,0,0,4.425,3.213l14.949-7.854,14.949,7.854a3.052,3.052,0,0,0,3.212-.232,3.028,3.028,0,0,0,1.213-2.981Zm3.1-22.379c0.1-.712,1.07-1.865,4.1-1.672,0.186,0.011.365,0.017,0.537,0.017,3.811,0,4.135-2.838,4.351-4.743a6.11,6.11,0,0,1,.726-2.758,1.112,1.112,0,1,0-1.824-1.271,7.914,7.914,0,0,0-1.112,3.777c-0.24,2.11-.331,2.9-2.536,2.759-2.431-.155-4.246.365-5.4,1.546a3.687,3.687,0,0,0-1.061,2.142l2.218,0.175Zm-14.123-15.282a0.214,0.214,0,0,1,.035-0.016l0.9,2.034c1.091-.481,2.744-2.364,1.185-6.05-0.569-1.346-.292-1.531,1.273-2.285,1.528-.737,3.839-1.851,3.229-5.3a1.112,1.112,0,0,0-2.19.387c0.3,1.716-.437,2.155-2.006,2.912-1.408.679-3.765,1.815-2.355,5.152C103.654,836.181,103.161,837.106,102.735,837.335Zm-28.412-.883c1.694,0.385,2.005.5,1.753,1.941-0.692,3.942,1.341,5.407,2.513,5.63a1.078,1.078,0,0,0,.21.021,1.112,1.112,0,0,0,.208-2.2c-0.012,0-1.215-.357-0.74-3.062,0.626-3.568-1.926-4.148-3.451-4.494-1.7-.385-2.518-0.648-2.608-2.388a1.112,1.112,0,0,0-2.221.114C70.166,835.509,72.668,836.076,74.323,836.452Zm3.436,13.25a3.15,3.15,0,1,0,.923-2.228A3.128,3.128,0,0,0,77.759,849.7Zm2.5-.656a0.928,0.928,0,1,1-.272.656A0.923,0.923,0,0,1,80.255,849.046Zm26.4-6.483a3.153,3.153,0,1,0,2.229-.923A3.152,3.152,0,0,0,106.657,842.563Zm2.885,2.883a0.928,0.928,0,1,1,0-1.311A0.922,0.922,0,0,1,109.542,845.446Zm-35.848,25.68a3.15,3.15,0,1,0,0,4.457A3.137,3.137,0,0,0,73.694,871.126Zm-1.573,2.884a0.928,0.928,0,0,1-1.312,0A0.928,0.928,0,1,1,72.121,874.01Zm56.255-2.884a3.15,3.15,0,1,0,0,4.457A3.135,3.135,0,0,0,128.376,871.126ZM126.8,874.01a0.927,0.927,0,1,1,0-1.312A0.921,0.921,0,0,1,126.8,874.01ZM88.993,837.62a3.152,3.152,0,1,0-2.229-.923A3.129,3.129,0,0,0,88.993,837.62Zm-0.656-3.806a0.928,0.928,0,1,1-.272.656A0.924,0.924,0,0,1,88.336,833.814Zm-16.2,11.572a1.443,1.443,0,1,1-1.444,1.443A1.444,1.444,0,0,1,72.141,845.386ZM119.879,874.8a1.443,1.443,0,1,1-1.444,1.443A1.443,1.443,0,0,1,119.879,874.8Zm-46.453,8.969a1.443,1.443,0,1,1-1.444,1.443A1.444,1.444,0,0,1,73.426,883.766Zm43.226-38.486a1.11,1.11,0,0,0,.8-0.337l1.545-1.588a1.112,1.112,0,0,0-1.595-1.55l-1.545,1.589A1.112,1.112,0,0,0,116.652,845.28Zm-32.9-1.756,2.055,0.83a1.1,1.1,0,0,0,.416.082,1.111,1.111,0,0,0,.417-2.142l-2.055-.831A1.112,1.112,0,1,0,83.755,843.524Zm-7.263,35.268-2.055-.831a1.112,1.112,0,1,0-.834,2.061l2.055,0.831A1.112,1.112,0,1,0,76.492,878.792Zm46.9,3.8-2.055-.831a1.111,1.111,0,1,0-.833,2.061l2.055,0.83A1.111,1.111,0,1,0,123.4,882.589Z" transform="translate(-67.719 -824.813)"/>
</svg>
