<svg xmlns="http://www.w3.org/2000/svg" width="47.844" height="48" viewBox="0 0 47.844 48">
  <metadata><?xpacket begin="﻿" id="W5M0MpCehiHzreSzNTczkc9d"?>
<x:xmpmeta xmlns:x="adobe:ns:meta/" x:xmptk="Adobe XMP Core 5.6-c138 79.159824, 2016/09/14-01:09:01        ">
   <rdf:RDF xmlns:rdf="http://www.w3.org/1999/02/22-rdf-syntax-ns#">
      <rdf:Description rdf:about=""/>
   </rdf:RDF>
</x:xmpmeta>
                                                                                                    
                                                                                                    
                                                                                                    
                                                                                                    
                                                                                                    
                                                                                                    
                                                                                                    
                                                                                                    
                                                                                                    
                                                                                                    
                                                                                                    
                                                                                                    
                                                                                                    
                                                                                                    
                                                                                                    
                                                                                                    
                                                                                                    
                                                                                                    
                                                                                                    
                                                                                                    
                           
<?xpacket end="w"?></metadata>
<defs>
    <style>
      .cls-1 {
        fill: #0d3e7e;
        fill-rule: evenodd;
        opacity: 0.7;
      }
    </style>
  </defs>
  <path id="Forma_1_копия_2" data-name="Forma 1 копия 2" class="cls-1" d="M58.323,6891H38.251a3.52,3.52,0,0,0-3.51,3.52v40.95a3.522,3.522,0,0,0,3.51,3.53H58.322a3.522,3.522,0,0,0,3.511-3.53v-40.95A3.52,3.52,0,0,0,58.323,6891Zm-21.988,6.4h23.9v30.4h-23.9v-30.4Zm1.916-4.8H58.322a1.92,1.92,0,0,1,1.917,1.92v1.28h-23.9v-1.28A1.919,1.919,0,0,1,38.251,6892.6Zm20.072,44.8H38.251a1.922,1.922,0,0,1-1.916-1.93v-6.07h23.9v6.07A1.922,1.922,0,0,1,58.323,6937.4Zm-10.036-7.2a3.2,3.2,0,1,0,3.187,3.2A3.194,3.194,0,0,0,48.287,6930.2Zm0,4.8a1.6,1.6,0,1,1,1.593-1.6A1.6,1.6,0,0,1,48.287,6935ZM45.1,6895h3.187a0.8,0.8,0,0,0,0-1.6H45.1A0.8,0.8,0,0,0,45.1,6895Zm5.578,0h0.8a0.8,0.8,0,0,0,0-1.6h-0.8A0.8,0.8,0,0,0,50.678,6895Zm18.814-.35a0.8,0.8,0,0,0-1.127,0,0.812,0.812,0,0,0,0,1.14,7.7,7.7,0,0,1,0,10.84,0.8,0.8,0,0,0,0,1.13,0.8,0.8,0,0,0,1.127,0A9.31,9.31,0,0,0,69.492,6894.65Zm-3.355,1.83a0.781,0.781,0,0,0-1.127,0,0.8,0.8,0,0,0,0,1.13,5.267,5.267,0,0,1,0,7.42,0.8,0.8,0,0,0,0,1.13,0.805,0.805,0,0,0,1.127,0A6.868,6.868,0,0,0,66.136,6896.48Zm-37.927-.69a0.812,0.812,0,0,0,0-1.14,0.8,0.8,0,0,0-1.127,0,9.31,9.31,0,0,0,0,13.11,0.8,0.8,0,0,0,1.127,0,0.8,0.8,0,0,0,0-1.13A7.694,7.694,0,0,1,28.209,6895.79Zm3.355,0.46a0.8,0.8,0,0,0-1.127,0,6.88,6.88,0,0,0,0,9.69,0.8,0.8,0,0,0,1.127,0,0.8,0.8,0,0,0,0-1.13,5.267,5.267,0,0,1,0-7.42A0.814,0.814,0,0,0,31.564,6896.25Z" transform="translate(-24.375 -6891)"/>
</svg>
