<svg xmlns="http://www.w3.org/2000/svg" width="29" height="29" viewBox="0 0 29 29">
  <metadata><?xpacket begin="﻿" id="W5M0MpCehiHzreSzNTczkc9d"?>
<x:xmpmeta xmlns:x="adobe:ns:meta/" x:xmptk="Adobe XMP Core 5.6-c138 79.159824, 2016/09/14-01:09:01        ">
   <rdf:RDF xmlns:rdf="http://www.w3.org/1999/02/22-rdf-syntax-ns#">
      <rdf:Description rdf:about=""/>
   </rdf:RDF>
</x:xmpmeta>
                                                                                                    
                                                                                                    
                                                                                                    
                                                                                                    
                                                                                                    
                                                                                                    
                                                                                                    
                                                                                                    
                                                                                                    
                                                                                                    
                                                                                                    
                                                                                                    
                                                                                                    
                                                                                                    
                                                                                                    
                                                                                                    
                                                                                                    
                                                                                                    
                                                                                                    
                                                                                                    
                           
<?xpacket end="w"?></metadata>
<defs>
    <style>
      .cls-1 {
        fill: #0066b3;
        fill-rule: evenodd;
      }
    </style>
  </defs>
  <path class="cls-1" d="M43.4,123.156h-3.48V120.6a0.6,0.6,0,0,0-.6-0.6H19.681a0.6,0.6,0,0,0-.6.6v2.562H15.6a0.6,0.6,0,0,0-.6.595V148.4a0.6,0.6,0,0,0,.6.595H27.536a0.6,0.6,0,0,0,.6-0.595v-2.561h2.727V148.4a0.6,0.6,0,0,0,.6.595H43.4A0.6,0.6,0,0,0,44,148.4V123.752A0.6,0.6,0,0,0,43.4,123.156Zm-23.119-1.965H38.719v20.325H36.5V123.771a0.6,0.6,0,0,0-.6-0.6H22.741a0.6,0.6,0,0,0-.6.6V125.6h-1.86v-4.406ZM16.2,147.808V124.347h2.88v20.9a0.594,0.594,0,0,0,.375.552h0l5,2.008H16.2Zm10.736-.288-4.175-1.677h4.175v1.677Zm-6.656-2.868V133.457h1.86v8.654a0.6,0.6,0,0,0,.6.6h6.494a0.6,0.6,0,0,0,.6-0.6v-1.548a0.6,0.6,0,0,0-1.2,0v0.952H23.341v-4.882h7.5a0.6,0.6,0,1,0,0-1.191H29.834v-3.335a0.6,0.6,0,0,0-1.2,0v3.335H23.341v-4.01a0.6,0.6,0,0,0-1.2,0v0.834h-1.86v-5.478h1.86v0.833a0.6,0.6,0,0,0,1.2,0v-3.255h5.293v2.739a0.6,0.6,0,0,0,1.2,0v-2.739H35.3v11.076H34.322a0.6,0.6,0,1,0,0,1.191H35.3v5.478a0.6,0.6,0,0,0,.6.6h2.815v1.945H20.281Zm11.783,1.191h4.175l-4.175,1.677v-1.677h0ZM42.8,147.808H34.544l5-2.008h0a0.594,0.594,0,0,0,.375-0.551v-20.9H42.8v23.461Zm-9.614-9.326a0.6,0.6,0,0,0-.849,0l-1.38,1.37a0.592,0.592,0,0,0,0,.842,0.6,0.6,0,0,0,.849,0l0.356-.353V142.1a0.6,0.6,0,0,0,1.2,0v-1.762l0.356,0.353a0.6,0.6,0,0,0,.849,0,0.592,0.592,0,0,0,0-.842Z" transform="translate(-15 -120)"/>
</svg>
