<svg xmlns="http://www.w3.org/2000/svg" width="24" height="24" viewBox="0 0 24 24">
  <metadata><?xpacket begin="﻿" id="W5M0MpCehiHzreSzNTczkc9d"?>
<x:xmpmeta xmlns:x="adobe:ns:meta/" x:xmptk="Adobe XMP Core 5.6-c138 79.159824, 2016/09/14-01:09:01        ">
   <rdf:RDF xmlns:rdf="http://www.w3.org/1999/02/22-rdf-syntax-ns#">
      <rdf:Description rdf:about=""/>
   </rdf:RDF>
</x:xmpmeta>
                                                                                                    
                                                                                                    
                                                                                                    
                                                                                                    
                                                                                                    
                                                                                                    
                                                                                                    
                                                                                                    
                                                                                                    
                                                                                                    
                                                                                                    
                                                                                                    
                                                                                                    
                                                                                                    
                                                                                                    
                                                                                                    
                                                                                                    
                                                                                                    
                                                                                                    
                                                                                                    
                           
<?xpacket end="w"?></metadata>
<defs>
    <style>
      .cls-1 {
        fill: #94d1ff;
        fill-rule: evenodd;
      }
    </style>
  </defs>
  <path id="Shape_1_копия" data-name="Shape 1 копия" class="cls-1" d="M1299.5,5680.61h-2.88v-2.12a0.491,0.491,0,0,0-.49-0.49h-16.26a0.491,0.491,0,0,0-.49.49v2.12h-2.88a0.5,0.5,0,0,0-.5.5v20.4a0.493,0.493,0,0,0,.5.49h9.87a0.493,0.493,0,0,0,.5-0.49v-2.12h2.26v2.12a0.491,0.491,0,0,0,.49.49h9.88a0.493,0.493,0,0,0,.5-0.49v-20.4A0.5,0.5,0,0,0,1299.5,5680.61Zm-19.13-1.62h15.26v16.82h-1.83v-14.69a0.5,0.5,0,0,0-.5-0.49h-10.89a0.493,0.493,0,0,0-.5.49v1.51h-1.54v-3.64Zm-3.38,22.02V5681.6h2.39v17.29a0.493,0.493,0,0,0,.31.46h0l4.14,1.66h-6.84Zm8.89-.23-3.46-1.39h3.46v1.39Zm-5.51-2.38v-9.26h1.54v7.16a0.493,0.493,0,0,0,.5.49h5.37a0.5,0.5,0,0,0,.5-0.49v-1.28a0.5,0.5,0,0,0-1,0v0.79h-4.38v-4.04h6.21a0.508,0.508,0,0,0,.5-0.5,0.5,0.5,0,0,0-.5-0.49h-0.83v-2.76a0.5,0.5,0,0,0-1,0v2.76h-4.38v-3.32a0.5,0.5,0,0,0-.99,0v0.69h-1.54v-4.53h1.54v0.69a0.5,0.5,0,0,0,.99,0v-2.7h4.38v2.27a0.5,0.5,0,0,0,1,0v-2.27h4.52v9.17h-0.81a0.5,0.5,0,0,0-.5.49,0.508,0.508,0,0,0,.5.5h0.81v4.53a0.5,0.5,0,0,0,.5.49h2.33v1.61h-15.26Zm9.75,0.99h3.46l-3.46,1.39v-1.39h0Zm8.89,1.62h-6.84l4.14-1.66h0a0.493,0.493,0,0,0,.31-0.46V5681.6h2.39v19.41Zm-7.96-7.71a0.483,0.483,0,0,0-.7,0l-1.14,1.13a0.483,0.483,0,0,0,0,.7,0.5,0.5,0,0,0,.7,0l0.29-.3v1.46a0.5,0.5,0,0,0,1,0v-1.46l0.29,0.3a0.518,0.518,0,0,0,.35.14,0.5,0.5,0,0,0,.35-0.14,0.483,0.483,0,0,0,0-.7Z" transform="translate(-1276 -5678)"/>
</svg>
