<svg xmlns="http://www.w3.org/2000/svg" width="68.375" height="38.84" viewBox="0 0 68.375 38.84">
  <metadata><?xpacket begin="﻿" id="W5M0MpCehiHzreSzNTczkc9d"?>
<x:xmpmeta xmlns:x="adobe:ns:meta/" x:xmptk="Adobe XMP Core 5.6-c138 79.159824, 2016/09/14-01:09:01        ">
   <rdf:RDF xmlns:rdf="http://www.w3.org/1999/02/22-rdf-syntax-ns#">
      <rdf:Description rdf:about=""/>
   </rdf:RDF>
</x:xmpmeta>
                                                                                                    
                                                                                                    
                                                                                                    
                                                                                                    
                                                                                                    
                                                                                                    
                                                                                                    
                                                                                                    
                                                                                                    
                                                                                                    
                                                                                                    
                                                                                                    
                                                                                                    
                                                                                                    
                                                                                                    
                                                                                                    
                                                                                                    
                                                                                                    
                                                                                                    
                                                                                                    
                           
<?xpacket end="w"?></metadata>
<defs>
    <style>
      .cls-1 {
        fill: #0066b3;
        fill-rule: evenodd;
      }
    </style>
  </defs>
  <path class="cls-1" d="M231.391,1050.61H216.547a1.08,1.08,0,0,0-1.071,1.08v1.15a1.213,1.213,0,1,1-2.426,0v-1.15a1.08,1.08,0,0,0-1.071-1.08H167.446a2.223,2.223,0,0,0-2.212,2.23v34.42a2.221,2.221,0,0,0,2.212,2.22h44.533a1.071,1.071,0,0,0,1.071-1.07v-1.15a1.214,1.214,0,1,1,2.427,0v1.15a1.071,1.071,0,0,0,1.07,1.07h14.844a2.222,2.222,0,0,0,2.213-2.22v-34.42A2.224,2.224,0,0,0,231.391,1050.61Zm0.072,36.65a0.07,0.07,0,0,1-.072.07H217.617v-0.07a3.371,3.371,0,0,0-2.283-3.19v-1.4a1.071,1.071,0,1,0-2.141,0v1.4a3.372,3.372,0,0,0-2.284,3.19v0.07H167.446a0.07,0.07,0,0,1-.071-0.07v-34.42a0.07,0.07,0,0,1,.071-0.07h43.463v0.07a3.372,3.372,0,0,0,2.284,3.19v1.4a1.071,1.071,0,0,0,2.141,0v-1.4a3.371,3.371,0,0,0,2.283-3.19v-0.07h13.774a0.069,0.069,0,0,1,.071.07v34.42h0Zm-17.2-26.32a1.073,1.073,0,0,0-1.07,1.08v2.29a1.071,1.071,0,1,0,2.141,0v-2.29A1.074,1.074,0,0,0,214.263,1060.94Zm0,6.89a1.071,1.071,0,0,0-1.07,1.07v2.3a1.071,1.071,0,0,0,2.141,0v-2.3A1.071,1.071,0,0,0,214.263,1067.83Zm0,6.88a1.073,1.073,0,0,0-1.07,1.08v2.29a1.071,1.071,0,1,0,2.141,0v-2.29A1.074,1.074,0,0,0,214.263,1074.71Zm-14.087-15.75a1.067,1.067,0,0,0-1.514,0l-20.554,20.65a1.09,1.09,0,0,0,0,1.53,1.079,1.079,0,0,0,1.514,0l20.554-20.66A1.078,1.078,0,0,0,200.176,1058.96Zm-17.885-1.46a5.665,5.665,0,1,0,5.638,5.66A5.656,5.656,0,0,0,182.291,1057.5Zm0,9.18a3.515,3.515,0,1,1,3.5-3.52A3.513,3.513,0,0,1,182.291,1066.68Zm13.7,4.59a5.665,5.665,0,1,0,5.638,5.66A5.656,5.656,0,0,0,195.993,1071.27Zm0,9.18a3.515,3.515,0,1,1,3.5-3.52A3.513,3.513,0,0,1,195.993,1080.45Z" transform="translate(-165.219 -1050.63)"/>
</svg>
